<svg width="159" height="197" fill="none" xmlns="http://www.w3.org/2000/svg"><g clip-path="url(#a)"><path d="M134.08 197.17c0-22.24-13.38-41.41-32.5-49.91l9.27-21.78c1.02-2.4-.1-5.18-2.5-6.21-2.4-1.03-5.18.1-6.21 2.5l-9.53 22.4a54.561 54.561 0 0 0-26.24 0l-9.53-22.4a4.725 4.725 0 0 0-6.21-2.5 4.73 4.73 0 0 0-2.5 6.21l9.27 21.78c-19.13 8.5-32.5 27.67-32.5 49.91h109.19-.01Z" fill="#004BFF"/><path d="M149.15 10.62c-2.25 0-4.31.76-5.97 2.04C122.7 4.26 101.01 0 78.57 0 56.13 0 35.25 4.1 15.11 12.18a9.764 9.764 0 0 0-5.29-1.55C4.4 10.63 0 15.02 0 20.45c0 4.38 2.86 8.08 6.82 9.35l8 18.8.06.12c.01.02.02.05.03.08.02.05.06.09.08.13.1.2.22.39.35.57a4.66 4.66 0 0 0 .7.8c.21.18.44.34.68.49.06.04.13.07.19.1.19.1.38.19.58.27.07.03.13.05.2.08.48.16.98.25 1.49.25.04 0 .08-.01.12-.01.15 0 .29-.03.44-.04.16-.02.32-.03.48-.07.15-.03.3-.09.45-.14.12-.04.25-.06.37-.11.03-.01.06-.04.1-.05.03-.01.06-.02.1-.03 17.97-8.62 37.26-12.99 57.34-12.99 18.56 0 36.44 3.74 53.23 11.11l-7.54 17.72c-14.4-6.35-29.74-9.58-45.69-9.58-17.63 0-34.53 3.93-50.23 11.69-.13.07-.24.15-.37.23-.1.06-.2.12-.3.19-.16.12-.31.25-.45.38-.08.08-.17.15-.25.23-.13.14-.25.3-.36.45-.07.09-.14.18-.19.28-.1.16-.18.33-.26.5-.05.11-.1.21-.14.32-.06.17-.11.34-.15.51-.03.12-.07.24-.09.37-.03.17-.04.34-.05.51 0 .14-.02.27-.01.4 0 .17.03.33.05.5.02.14.04.28.07.43.04.16.09.32.15.47.04.11.05.22.1.33l11.86 27.87c.03.08.08.14.11.22.02.04.03.08.05.11.02.04.05.06.07.1.12.22.26.43.41.63.02.03.04.07.07.1.18.22.39.43.61.61l.12.09c.18.15.38.28.58.39.06.03.11.06.17.09.23.12.47.23.73.31.01 0 .02 0 .04.01.28.09.56.15.85.18h.09c.16.02.31.03.47.03.07 0 .15-.02.23-.02.12 0 .25-.02.37-.04.18-.02.36-.05.54-.1.13-.03.25-.07.38-.12.11-.04.22-.06.33-.1.07-.03.12-.07.19-.1.05-.02.1-.03.14-.06 10.59-5.52 22.05-8.32 34.08-8.32 10.91 0 21.35 2.33 31.1 6.87 1.19 4.09 4.95 7.07 9.42 7.07 5.42 0 9.82-4.4 9.82-9.82s-4.4-9.82-9.82-9.82c-2.85 0-5.42 1.22-7.21 3.17a83.644 83.644 0 0 0-33.31-6.94c-11.46 0-23.26 2.47-33.86 7.17l-8.13-19.1c13.22-5.85 27.32-8.82 41.98-8.82 16.16 0 31.65 3.6 46.03 10.71.02.01.05.01.07.03.06.03.11.07.17.09.23.1.47.16.71.22.04 0 .07.03.11.03.35.08.69.13 1.03.13.65 0 1.28-.14 1.87-.39 0 0 .02 0 .03-.01.16-.07.31-.15.46-.24.04-.02.09-.04.13-.07.13-.08.25-.17.37-.26.06-.04.12-.08.17-.13.11-.09.21-.19.3-.29.06-.06.13-.12.18-.19.09-.1.17-.2.24-.31l.18-.24c.07-.1.13-.21.19-.32.04-.07.08-.12.11-.19.01-.03.02-.06.04-.09.02-.05.05-.09.07-.14l11.26-26.46c.05-.12.07-.24.11-.36.05-.15.11-.3.14-.46.04-.15.05-.31.07-.46.02-.15.04-.3.05-.46 0-.16-.01-.31-.02-.46-.01-.15-.02-.3-.04-.45-.02-.15-.07-.3-.11-.44-.04-.15-.08-.29-.13-.43s-.12-.27-.19-.41c-.07-.14-.13-.28-.21-.41-.08-.13-.17-.24-.26-.36s-.18-.25-.29-.36c-.1-.11-.22-.21-.34-.31-.12-.1-.23-.21-.36-.3-.13-.09-.27-.17-.41-.25-.11-.06-.2-.14-.32-.19-19.26-9.23-39.93-13.92-61.43-13.92-19.85 0-38.97 3.99-56.94 11.86l-5.36-12.59a9.779 9.779 0 0 0 3.36-7.26C38.34 13.24 58.12 9.5 78.55 9.5s41.53 3.99 60.81 11.85c.45 5.01 4.65 8.94 9.78 8.94 5.42 0 9.82-4.4 9.82-9.82s-4.4-9.82-9.82-9.82" fill="#0028AA"/><path d="M49.04 176.72c.02-2.11 4.15-3.09 5.15-4.79 1.03-1.75-.06-5.83 1.7-6.83 1.71-.97 4.62 2.05 6.73 2.07 2.11.02 5.07-2.94 6.77-1.94 1.75 1.03.57 5.09 1.57 6.86.97 1.71 5.08 2.78 5.06 4.89-.02 2.11-4.15 3.09-5.16 4.79-1.04 1.75.06 5.83-1.7 6.83-1.71.97-4.62-2.05-6.73-2.07-2.11-.02-5.07 2.94-6.77 1.94-1.75-1.03-.57-5.09-1.57-6.86-.97-1.71-5.08-2.78-5.06-4.89M86.01 176.85c0-6.4 5.19-11.58 11.58-11.58s11.58 5.19 11.58 11.58-5.19 11.58-11.58 11.58-11.58-5.19-11.58-11.58Z" fill="#BEEBFF"/></g><defs><clipPath id="a"><path fill="#BEEBFF" d="M0 0h158.97v197.17H0z"/></clipPath></defs></svg>
