<svg width="150" height="45" fill="none" xmlns="http://www.w3.org/2000/svg"><g clip-path="url(#a)"><path d="M122.91 27.84c0-7.24 5.87-13.11 13.11-13.11 7.24 0 13.11 5.87 13.11 13.11 0 7.24-5.87 13.11-13.11 13.11-7.24 0-13.11-5.87-13.11-13.11Z" fill="#1450F5"/><path d="M84.02 1.31c2.26-2.24 9.19 6.37 12.13 6.38 2.94.01 9.94-8.54 12.18-6.28 2.24 2.26-6.37 9.19-6.38 12.13-.01 2.95 8.54 9.94 6.28 12.18-2.26 2.24-9.19-6.37-12.13-6.38-2.95-.01-9.94 8.54-12.18 6.28-2.24-2.26 6.37-9.19 6.38-12.13.01-2.94-8.54-9.94-6.28-12.18Z" fill="#447EF6"/><path d="M40.97 13.36c.02-2.39 4.7-3.5 5.83-5.41 1.17-1.98-.07-6.6 1.93-7.73 1.94-1.1 5.22 2.32 7.61 2.35 2.39.02 5.74-3.33 7.66-2.19 1.98 1.17.64 5.76 1.77 7.76 1.1 1.94 5.75 3.14 5.72 5.53-.02 2.39-4.7 3.5-5.83 5.42-1.17 1.98.07 6.6-1.93 7.73-1.94 1.1-5.22-2.32-7.61-2.35-2.39-.02-5.74 3.33-7.66 2.19-1.98-1.17-.64-5.76-1.77-7.76-1.1-1.94-5.75-3.14-5.72-5.53" fill="#8DB9F9"/><path d="M32.68 28.01c-.01 1.22-4.41 1.18-5.01 2.19-.59.98 1.99 4.51 1.15 5.35-.85.85-4.78-1.43-5.58-.65-.8.78 1.4 4.76.54 5.59-.86.82-4.33-1.83-5.32-1.26-1.01.58-1.06 4.98-2.29 4.96-1.22-.01-1.18-4.41-2.19-5.01-.98-.59-4.51 2-5.35 1.15-.85-.85 1.43-4.78.65-5.58-.78-.8-4.76 1.4-5.59.53-.82-.86 1.83-4.33 1.26-5.32C4.38 28.95-.01 28.9 0 27.68c.01-1.22 4.41-1.18 5.01-2.19.59-.98-1.99-4.51-1.15-5.35.85-.85 4.78 1.43 5.58.65.8-.78-1.4-4.76-.53-5.59.86-.83 4.33 1.83 5.32 1.26 1.01-.58 1.06-4.98 2.29-4.96 1.22.01 1.18 4.41 2.19 5.01.98.59 4.51-1.99 5.35-1.15.84.85-1.43 4.78-.65 5.58.78.8 4.76-1.4 5.59-.53.82.86-1.83 4.33-1.26 5.32.58 1.01 4.98 1.06 4.97 2.29" fill="#C7EAFD"/></g><defs><clipPath id="a"><path d="M0 0h149.12v44.19H0z"/></clipPath></defs></svg>