<svg xmlns="http://www.w3.org/2000/svg" width="430" height="430" viewBox="0 -143 430 430" fill="none"><path d="M430 74.163c-.161 16.093-57.996 15.59-65.922 28.772-7.735 12.855 26.247 59.284 15.178 70.334-11.069 11.049-62.895-18.785-73.361-8.55-10.466 10.234 18.387 62.609 7.041 73.533-11.265 10.843-57.001-24.07-70.011-16.597-13.347 7.675-13.986 65.506-30.085 65.345-16.098-.161-15.59-57.997-28.767-65.923-12.854-7.735-59.289 26.247-70.333 15.178-11.139-11.145 18.784-62.916 8.525-73.362-10.26-10.445-62.609 18.388-73.537 7.041-10.838-11.265 24.075-57.001 16.596-70.012C57.665 86.585-.16 85.946 0 69.847.161 53.75 57.992 54.257 65.923 41.08c7.73-12.854-26.247-59.289-15.183-70.334 11.16-11.149 62.925 18.775 73.37 8.515 10.446-10.26-18.381-62.609-7.041-73.538 11.266-10.838 57.001 24.075 70.012 16.597 13.352-7.649 13.991-65.476 30.085-65.32 16.093.156 15.59 57.992 28.771 65.923 12.855 7.73 59.284-26.247 70.333-15.183 11.135 11.155-18.784 62.921-8.524 73.367 10.259 10.445 62.608-18.382 73.531-7.04 10.843 11.264-24.069 57-16.596 70.011 7.65 13.352 65.48 13.991 65.319 30.085Z" fill="url(#a)" fill-opacity=".5"/><defs><linearGradient id="a" x1="215" y1="287" x2="215" y2="-143" gradientUnits="userSpaceOnUse"><stop stop-color="#0028AA"/><stop offset="1" stop-color="#000F32"/></linearGradient></defs></svg>